<?xml version="1.0" standalone="no"?>
<!DOCTYPE svg PUBLIC "-//W3C//DTD SVG 20010904//EN"
 "http://www.w3.org/TR/2001/REC-SVG-20010904/DTD/svg10.dtd">
<svg version="1.0" xmlns="http://www.w3.org/2000/svg"
 width="433.000000pt" height="433.000000pt" viewBox="0 0 433.000000 433.000000"
 preserveAspectRatio="xMidYMid meet">

<g transform="translate(0.000000,433.000000) scale(0.100000,-0.100000)"
fill="#000000" stroke="none">
<path d="M3006 3887 c-26 -19 -34 -72 -41 -286 -4 -125 -12 -218 -22 -256 -25
-95 -36 -92 -29 10 7 90 -5 241 -25 301 -13 42 -53 60 -86 39 -33 -22 -43 -53
-36 -117 3 -29 0 -111 -6 -183 -6 -71 -16 -199 -21 -283 -8 -115 -15 -162 -29
-189 l-18 -36 -7 26 c-9 39 -44 35 -88 -10 -36 -38 -47 -64 -103 -248 -40
-129 -51 -147 -154 -240 -94 -84 -112 -95 -188 -115 -31 -8 -52 -23 -84 -62
-24 -28 -68 -67 -99 -86 -30 -19 -70 -49 -88 -66 l-33 -31 8 30 c16 60 9 119
-19 162 -18 28 -32 68 -40 119 -13 76 -14 79 -55 107 -31 21 -43 35 -43 53 0
14 -6 37 -14 52 -11 22 -12 37 -3 75 9 42 8 51 -10 75 -15 20 -30 28 -61 30
l-42 3 0 54 c0 58 -19 90 -49 80 -10 -3 -39 4 -64 15 l-47 21 0 54 c0 44 -4
57 -22 69 -12 9 -35 16 -50 16 -21 0 -28 5 -28 19 0 26 -20 40 -61 43 -21 2
-41 12 -52 26 -20 24 -47 28 -78 12 -18 -10 -19 -7 -19 57 0 37 -4 73 -8 79
-13 19 -39 23 -60 9 -19 -14 -20 -12 -27 48 -3 34 -11 67 -17 74 -26 32 -85
-1 -103 -58 -9 -27 -19 -24 -32 11 -15 39 -72 68 -111 54 -25 -9 -27 -13 -26
-69 2 -90 50 -253 101 -342 40 -71 42 -78 27 -94 -22 -24 -12 -78 21 -117 13
-16 68 -55 122 -87 135 -81 175 -121 228 -227 40 -81 45 -97 45 -160 0 -58 7
-85 41 -169 22 -55 39 -105 36 -112 -2 -7 -29 -21 -58 -31 -63 -23 -154 -107
-189 -176 -20 -39 -21 -48 -10 -102 8 -44 8 -78 0 -136 -14 -92 -3 -150 35
-188 42 -42 95 -25 95 29 0 26 10 43 48 80 l48 48 55 -25 c64 -29 96 -57 115
-102 19 -46 7 -70 -65 -133 -74 -64 -80 -75 -101 -171 l-16 -75 -160 -5 c-143
-5 -163 -7 -196 -28 -38 -24 -58 -64 -49 -97 4 -11 16 -39 29 -63 17 -31 28
-42 46 -42 26 0 42 36 31 71 -5 14 -2 19 12 19 32 0 63 -12 62 -24 -3 -23 1
-34 23 -62 14 -17 21 -38 19 -56 -3 -34 37 -75 84 -84 41 -7 81 13 125 62 30
35 32 41 26 89 l-6 52 73 13 c98 17 125 30 177 83 41 43 80 61 80 38 0 -6 -16
-45 -36 -88 -23 -51 -37 -100 -41 -141 l-6 -62 -56 -17 c-31 -9 -77 -18 -103
-19 -27 -1 -55 -2 -63 -3 -8 0 -17 -12 -21 -25 -3 -15 -14 -26 -27 -28 -29 -4
-59 -67 -65 -133 -5 -61 5 -72 72 -81 l46 -7 0 45 0 45 42 6 c24 3 44 4 46 2
6 -6 -19 -49 -46 -77 -37 -40 -24 -62 31 -53 59 10 104 40 112 75 8 35 27 52
57 50 13 -1 30 -2 40 -1 17 1 38 48 38 87 0 21 4 22 101 26 96 3 102 4 125 31
16 19 24 40 24 66 0 21 3 41 7 44 3 4 21 -15 40 -43 37 -56 62 -73 84 -59 7 5
30 9 50 9 31 0 37 -5 52 -35 16 -33 19 -35 70 -35 39 0 61 -6 87 -24 52 -35
77 -40 105 -22 13 8 26 25 30 36 6 20 8 19 42 -10 42 -37 84 -38 93 -2 3 13 8
22 13 21 21 -5 67 12 67 25 0 13 4 13 29 -1 27 -16 30 -16 54 0 14 9 33 14 41
11 18 -7 109 13 147 32 26 13 59 83 59 123 0 9 14 24 30 33 39 22 40 64 3 126
-50 83 -101 123 -264 206 -85 43 -163 87 -175 97 -11 10 -47 32 -80 48 -32 16
-72 43 -88 60 -26 27 -28 35 -23 81 3 28 9 55 12 60 4 6 27 -7 52 -30 25 -22
52 -40 60 -40 26 0 51 19 57 44 6 23 9 24 41 15 20 -6 46 -7 58 -3 21 7 77 42
87 56 3 3 19 8 35 10 21 2 34 11 43 31 19 38 67 57 148 57 73 0 128 24 139 61
4 11 23 30 43 43 55 35 160 149 168 182 4 16 24 72 45 126 45 110 47 130 18
159 l-21 21 35 37 c60 62 98 137 141 278 18 57 14 79 -15 88 -18 6 -16 9 13
28 41 28 56 76 39 122 -7 21 -9 53 -5 83 5 42 3 51 -14 63 -11 8 -22 28 -24
44 -2 18 -11 34 -25 41 -22 11 -22 11 11 43 18 17 38 48 44 67 9 30 8 38 -7
51 -17 14 -17 20 -5 58 16 55 9 85 -21 85 -52 0 -57 9 -25 50 31 40 37 68 20
101 -15 26 -54 24 -98 -6 -48 -33 -52 -32 -40 9 8 26 8 43 -2 65 -22 54 -75
49 -105 -9 -9 -17 -17 -30 -19 -30 -2 0 9 50 25 111 35 133 36 177 8 213 -51
65 -101 7 -148 -174 -13 -47 -28 -105 -35 -130 l-13 -45 -7 85 c-12 146 -28
254 -42 283 -16 30 -48 36 -78 14z m59 -17 c3 -5 -1 -10 -10 -10 -9 0 -13 5
-10 10 3 6 8 10 10 10 2 0 7 -4 10 -10z m-2194 -615 c0 -18 1 -18 7 -2 6 14
14 9 45 -33 33 -44 42 -50 75 -50 62 0 82 -9 82 -38 0 -14 -11 -38 -25 -52
l-25 -26 20 -59 c11 -33 19 -62 18 -66 -2 -4 -41 8 -88 27 -47 19 -90 32 -97
30 -14 -6 -74 90 -92 146 -11 32 -9 42 10 80 38 74 51 91 60 76 5 -7 9 -22 10
-33z m2009 -124 l-20 -81 40 -79 40 -80 -72 2 -71 2 -33 -55 c-19 -30 -38 -56
-43 -58 -4 -1 -11 16 -14 39 -4 33 0 53 19 92 21 40 27 69 31 157 5 100 7 107
23 97 14 -8 27 -4 66 25 27 19 50 32 52 27 2 -4 -6 -43 -18 -88z m-1750 16 c0
-2 -10 -12 -22 -23 l-23 -19 19 23 c18 21 26 27 26 19z m2349 -202 l52 -66 29
21 29 21 -6 -36 c-3 -20 0 -53 6 -73 16 -48 2 -86 -39 -107 -37 -19 -38 -37
-3 -60 26 -17 26 -18 6 -26 -11 -4 -38 -38 -59 -76 -38 -67 -38 -68 -45 -38
-4 17 -7 54 -8 82 -1 50 -3 54 -43 83 -24 16 -51 35 -61 42 -18 12 -14 16 38
53 l57 39 -4 103 c-3 57 -4 103 -3 103 1 0 25 -29 54 -65z m-1817 -295 c-10
-43 -9 -56 4 -82 13 -25 14 -33 2 -43 -16 -16 -128 -79 -128 -73 0 3 9 31 20
63 l20 58 -22 16 c-12 8 -36 27 -52 42 l-30 27 72 7 c62 6 75 11 89 32 26 39
39 14 25 -47z m813 -277 c-10 -16 -29 -43 -42 -61 l-25 -33 20 -64 c23 -74 22
-74 -62 -45 l-57 19 -62 -39 c-34 -22 -63 -36 -65 -31 -2 5 1 33 7 63 8 47 7
55 -11 74 -21 24 -18 28 26 38 30 7 103 54 124 79 7 8 20 13 30 11 9 -3 35 -1
57 5 22 5 48 9 59 10 18 1 18 0 1 -26z m880 -353 c-29 -79 -43 -103 -92 -153
-32 -32 -70 -65 -85 -73 -15 -8 -35 -27 -44 -43 -25 -42 -68 -60 -156 -64 -84
-4 -123 -22 -138 -63 -7 -17 -17 -24 -36 -24 -14 0 -44 -14 -65 -31 -42 -33
-62 -37 -120 -25 -34 7 -37 6 -43 -21 -7 -26 -22 -43 -39 -43 -4 0 -30 21 -58
47 -29 27 -53 43 -58 37 -14 -15 -31 -78 -33 -118 -2 -47 43 -96 127 -138 33
-17 69 -38 80 -48 11 -10 47 -31 80 -48 l60 -30 -65 -6 c-36 -3 -182 -8 -325
-10 -246 -5 -568 -27 -880 -60 -76 -8 -141 -14 -142 -12 -2 2 3 37 11 77 17
79 10 70 133 181 44 39 50 77 23 134 -23 46 -83 90 -159 115 -34 11 -35 11
-88 -44 -40 -41 -53 -63 -53 -85 0 -63 -59 -48 -85 23 -15 39 -16 55 -6 122 6
42 13 78 14 80 2 1 73 12 158 23 85 10 242 38 349 60 221 45 596 101 840 125
537 52 631 71 835 169 50 24 91 42 93 41 1 -1 -13 -44 -33 -95z m-2131 -1126
c18 -47 2 -94 -33 -94 -23 0 -26 4 -25 33 2 60 42 103 58 61z m236 -454 c-36
-11 -52 -11 -45 0 3 6 21 10 38 9 31 -1 31 -1 7 -9z"/>
</g>
</svg>
